# xmcd CD database file
#
# Track frame offsets:
#	150
#	15451
#	40201
#	61501
#	78301
#	94201
#	112486
#	135436
#	153361
#
# Disc length: 2399 seconds
#
# Revision: 0
# Processed by: cddbd v1.5.2PL0 Copyright (c) Steve Scherf et al.
# Submitted via: CDex 1.51
#
DISCID=68095d09
DTITLE=Ashley Davies - Muscle Drum Music
DYEAR=2007
DGENRE=Rhythmic Soul
TTITLE0=Latino
TTITLE1=Get Thee Behind Me Satan
TTITLE2=Grab Your Kittens and Dance
TTITLE3=Not Goin Down
TTITLE4=Shes in your Dreams
TTITLE5=Love That Stomp
TTITLE6=Glad This Ain't Real
TTITLE7=Have you got it in you?
TTITLE8=Ragged and Raw
EXTD=YEAR: 2007
EXTT0=
EXTT1=
EXTT2=
EXTT3=
EXTT4=
EXTT5=
EXTT6=
EXTT7=
EXTT8=
PLAYORDER=
